<?xml version="1.0" encoding="UTF-8"?><svg id="TEXT" xmlns="http://www.w3.org/2000/svg" xmlns:xlink="http://www.w3.org/1999/xlink" viewBox="0 0 792 792"><defs><style>.cls-1{fill:#fff;}.cls-2{fill:#abb2a8;}.cls-3{fill:#5a977d;}.cls-4{fill:#0d1812;}.cls-5{fill:url(#linear-gradient);}</style><linearGradient id="linear-gradient" x1="322.91" y1="437.75" x2="473.44" y2="437.75" gradientTransform="matrix(1, 0, 0, 1, 0, 0)" gradientUnits="userSpaceOnUse"><stop offset=".03" stop-color="#5a977d"/><stop offset="1" stop-color="#fff"/></linearGradient></defs><g><polygon class="cls-4" points="258.97 355.98 192.24 317.45 125.5 355.98 125.5 433.04 192.24 471.57 258.97 433.04 258.97 355.98"/><g><g><polygon class="cls-4" points="192.23 470.74 125.96 432.48 125.96 356.5 192.23 394.77 192.23 470.74"/><g><polygon class="cls-1" points="186.39 460.66 131.81 429.15 131.81 366.58 186.39 398.09 186.39 460.66"/><polygon class="cls-4" points="139.6 380.02 139.6 424.71 178.59 447.22 178.59 438.28 147.4 420.28 147.4 411.34 170.79 424.84 170.79 415.9 147.4 402.4 147.4 393.46 178.59 411.47 178.59 402.53 139.6 380.02"/></g></g><g><polygon class="cls-4" points="258.51 432.48 192.23 470.74 192.23 394.77 258.51 356.5 258.51 432.48"/><g><polygon class="cls-4" points="198.08 460.66 252.66 429.15 252.66 366.58 198.08 398.09 198.08 460.66"/><polygon class="cls-2" points="244.86 380.02 244.86 424.71 205.88 447.22 205.88 438.28 237.06 420.28 237.06 411.34 213.67 424.84 213.67 415.9 237.06 402.4 237.06 393.46 205.88 411.47 205.88 402.53 244.86 380.02"/></g></g><g><polygon class="cls-4" points="192.36 394.88 125.96 356.59 192.11 318.28 258.51 356.58 192.36 394.88"/><g><polygon class="cls-1" points="137.66 356.59 192.34 388.12 246.82 356.58 192.14 325.04 137.66 356.59"/><polygon class="cls-4" points="153.25 356.59 192.16 334.05 231.22 356.58 223.44 361.09 192.19 343.07 161.06 361.09 153.25 356.59"/></g></g></g></g><g><polygon class="cls-4" points="260.84 352.38 185.29 308.76 109.73 352.38 109.73 439.62 185.29 483.24 260.84 439.62 260.84 352.38"/><g><g><polygon class="cls-4" points="185.28 482.29 110.26 438.98 110.26 352.97 185.28 396.29 185.28 482.29"/><g><polygon class="cls-1" points="178.66 470.88 116.88 435.21 116.88 364.38 178.66 400.06 178.66 470.88"/><polygon class="cls-4" points="125.7 379.6 125.7 430.19 169.84 455.67 169.84 445.55 134.53 425.17 134.53 415.05 161.01 430.34 161.01 420.22 134.53 404.93 134.53 394.81 169.84 415.2 169.84 405.08 125.7 379.6"/></g></g><g><polygon class="cls-4" points="260.31 438.98 185.28 482.29 185.28 396.29 260.31 352.97 260.31 438.98"/><g><polygon class="cls-4" points="191.9 470.88 253.69 435.21 253.69 364.38 191.9 400.06 191.9 470.88"/><polygon class="cls-3" points="244.86 379.6 244.86 430.19 200.73 455.67 200.73 445.55 236.03 425.17 236.03 415.05 209.56 430.34 209.56 420.22 236.03 404.93 236.03 394.81 200.73 415.2 200.73 405.08 244.86 379.6"/></g></g><g><polygon class="cls-4" points="185.43 396.42 110.26 353.07 185.15 309.71 260.32 353.06 185.43 396.42"/><g><polygon class="cls-2" points="123.5 353.07 185.4 388.77 247.08 353.06 185.17 317.36 123.5 353.07"/><polygon class="cls-4" points="141.15 353.07 185.21 327.56 229.42 353.06 220.61 358.16 185.24 337.76 149.99 358.17 141.15 353.07"/></g></g></g></g><g><g><path class="cls-1" d="M322.91,414.91v-69.97h39.05v9.65h-27.67v17.54h27.67v9.99h-27.67v22.61h27.67v10.18h-39.05Z"/><path class="cls-1" d="M370.99,400.91l9.08-4.21c.86,3.12,2.44,5.5,4.73,7.15s5.22,2.46,8.79,2.46c3.38,0,6.06-.94,8.05-2.82,1.99-1.88,2.99-4.4,2.99-7.55,0-4.11-3.41-7.77-10.23-10.99-.96-.48-1.69-.83-2.2-1.05-7.71-3.76-12.85-7.16-15.41-10.2s-3.85-6.76-3.85-11.16c0-5.7,1.94-10.32,5.81-13.86,3.87-3.54,8.94-5.3,15.22-5.3,5.16,0,9.48,1,12.95,2.99,3.47,1.99,5.88,4.85,7.22,8.58l-8.89,4.59c-1.4-2.2-2.94-3.81-4.61-4.83-1.67-1.02-3.59-1.53-5.76-1.53-3.06,0-5.49,.8-7.29,2.39-1.8,1.59-2.7,3.73-2.7,6.4,0,4.21,3.95,8.12,11.85,11.76,.6,.29,1.08,.51,1.43,.67,6.91,3.19,11.66,6.3,14.24,9.34,2.58,3.04,3.87,6.84,3.87,11.4,0,6.63-2.09,11.89-6.26,15.8s-9.81,5.85-16.92,5.85c-5.96,0-10.84-1.37-14.65-4.11-3.81-2.74-6.3-6.66-7.48-11.76Z"/><path class="cls-1" d="M439.38,383.51v31.4h-10.66v-69.97h17.21c5.1,0,8.85,.28,11.25,.84,2.41,.56,4.5,1.47,6.29,2.75,2.2,1.62,3.92,3.82,5.16,6.57,1.24,2.76,1.86,5.79,1.86,9.1s-.62,6.37-1.86,9.18c-1.24,2.8-2.96,5-5.16,6.59-1.79,1.28-3.88,2.18-6.29,2.72-2.41,.54-6.16,.81-11.25,.81h-6.55Zm.72-9.32h2.92c6.31,0,10.51-.69,12.62-2.06,2.1-1.37,3.15-3.79,3.15-7.26,0-3.73-1.12-6.36-3.37-7.89-2.25-1.53-6.38-2.29-12.4-2.29h-2.92v19.5Z"/><path class="cls-1" d="M521.68,414.91l-7.93-18.02h-27.72l-8.12,18.02h-11.95l33.88-72.74,33.84,72.74h-12Zm-31.45-27.48h19.5l-7.17-15.96c-.41-1.02-.84-2.19-1.29-3.51-.45-1.32-.89-2.8-1.34-4.42-.38,1.53-.79,2.96-1.22,4.28-.43,1.32-.87,2.54-1.31,3.66l-7.17,15.96Z"/><path class="cls-1" d="M596.43,361.96c-3.22-2.74-6.62-4.79-10.2-6.17-3.58-1.37-7.35-2.05-11.3-2.05-7.65,0-13.87,2.45-18.66,7.36-4.8,4.91-7.19,11.26-7.19,19.07s2.33,13.78,7,18.69c4.67,4.91,10.55,7.36,17.66,7.36,4.14,0,8.08-.73,11.83-2.2,3.74-1.46,7.34-3.68,10.78-6.64v12.86c-3.06,2.2-6.39,3.84-9.99,4.92-3.6,1.08-7.5,1.62-11.71,1.62-5.35,0-10.3-.88-14.84-2.63-4.54-1.75-8.53-4.33-11.97-7.74-3.41-3.35-6.03-7.29-7.86-11.83-1.83-4.54-2.75-9.38-2.75-14.5s.92-9.95,2.75-14.46c1.83-4.51,4.48-8.47,7.96-11.88,3.47-3.44,7.46-6.05,11.95-7.81s9.35-2.65,14.58-2.65c4.11,0,8.03,.6,11.76,1.79,3.73,1.19,7.34,3,10.85,5.42l-.62,11.47Zm-34.08,71.74v-5.07c2.58,.6,4.81,1.05,6.69,1.34s3.5,.43,4.88,.43c1.66,0,2.88-.27,3.68-.81,.8-.54,1.19-1.35,1.19-2.44,0-1.24-.5-2.14-1.51-2.7-1-.56-2.62-.84-4.85-.84-.22,0-.54,.02-.96,.05-.41,.03-.75,.05-1,.05v-8.79h4.11v4.11h.81c3.57,0,6.24,.69,8.01,2.08,1.77,1.39,2.65,3.46,2.65,6.24s-.98,4.68-2.94,6.09c-1.96,1.42-4.77,2.13-8.44,2.13-1.56,0-3.38-.15-5.45-.45-2.07-.3-4.37-.77-6.88-1.41Z"/><path class="cls-1" d="M682.27,380.07c0,4.97-.93,9.67-2.8,14.1-1.86,4.43-4.58,8.38-8.15,11.85-3.6,3.47-7.66,6.13-12.19,7.98s-9.27,2.77-14.24,2.77-9.84-.93-14.41-2.8c-4.57-1.86-8.61-4.52-12.12-7.96-3.57-3.47-6.28-7.41-8.12-11.8-1.85-4.4-2.77-9.11-2.77-14.15s.92-9.72,2.77-14.15c1.85-4.43,4.56-8.39,8.12-11.9,3.57-3.47,7.61-6.12,12.14-7.93,4.52-1.82,9.32-2.72,14.38-2.72s9.81,.91,14.31,2.72c4.51,1.82,8.55,4.46,12.12,7.93,3.57,3.54,6.28,7.53,8.15,11.97,1.86,4.45,2.8,9.14,2.8,14.08Zm-11.85,0c0-3.54-.65-6.9-1.94-10.08-1.29-3.19-3.15-6.02-5.57-8.51-2.36-2.45-5.09-4.34-8.2-5.66-3.11-1.32-6.38-1.98-9.82-1.98s-6.71,.65-9.82,1.96-5.87,3.2-8.29,5.69c-2.42,2.45-4.27,5.27-5.54,8.46-1.27,3.19-1.91,6.56-1.91,10.13s.64,6.88,1.91,10.04,3.12,5.97,5.54,8.46c2.42,2.49,5.18,4.38,8.27,5.69,3.09,1.31,6.37,1.96,9.84,1.96s6.65-.65,9.73-1.96c3.08-1.31,5.84-3.2,8.29-5.69,2.42-2.49,4.28-5.31,5.57-8.48,1.29-3.17,1.94-6.51,1.94-10.01Z"/></g><g><path class="cls-1" d="M474.07,471.18l15.56-41.37h13.63l2.92,41.37h-11.67l.06-6.09h-6.83l-1.81,6.09h-11.84Zm16.09-14.45h4.62l.14-15.33-4.76,15.33Z"/><path class="cls-1" d="M521.96,472.01c-3.91,0-7.06-1.42-9.44-4.25-2.38-2.83-3.57-6.6-3.57-11.31,0-3.83,.5-7.57,1.49-11.19,.99-3.63,2.34-6.67,4.04-9.12,1.66-2.38,3.58-4.16,5.77-5.33,2.18-1.17,4.67-1.76,7.47-1.76,3.99,0,7.15,1.39,9.49,4.18,2.34,2.79,3.51,6.58,3.51,11.38,0,3.85-.49,7.58-1.47,11.16-.98,3.59-2.33,6.64-4.05,9.15-1.61,2.36-3.51,4.13-5.71,5.31-2.2,1.18-4.71,1.77-7.52,1.77Zm-1.39-14.62c0,1.55,.21,2.68,.62,3.39,.42,.71,1.08,1.06,1.98,1.06,.81,0,1.52-.32,2.11-.96,.6-.64,1.13-1.67,1.6-3.09,.62-1.83,1.13-4.05,1.52-6.64,.39-2.6,.58-5.07,.58-7.41,0-1.55-.2-2.69-.59-3.41-.4-.73-1.01-1.09-1.84-1.09-.89,0-1.64,.32-2.25,.95-.61,.63-1.14,1.65-1.57,3.05-.62,1.91-1.14,4.17-1.54,6.8s-.61,5.08-.61,7.37Z"/><path class="cls-1" d="M581.21,440.44c-.68-.36-1.32-.61-1.93-.76-.61-.15-1.22-.23-1.84-.23-2.7,0-4.87,1.29-6.52,3.87-1.64,2.58-2.47,6-2.47,10.27,0,2.74,.5,4.77,1.49,6.09,.99,1.32,2.51,1.98,4.55,1.98,.49,0,1.02-.05,1.6-.16s1.19-.26,1.83-.47l-1.76,9.97c-.79,.32-1.65,.56-2.58,.71s-1.98,.23-3.17,.23c-4.67,0-8.23-1.36-10.7-4.08-2.46-2.72-3.7-6.67-3.7-11.84,0-8.1,1.87-14.63,5.61-19.57,3.74-4.94,8.7-7.41,14.88-7.41,1.13,0,2.24,.1,3.32,.3s2.14,.49,3.2,.86l-1.81,10.23Z"/><path class="cls-1" d="M581.8,456.39l4.17-26.58h11.62l-4.42,27.68c-.04,.23-.07,.43-.08,.62-.02,.19-.03,.41-.03,.65,0,.7,.2,1.25,.61,1.66,.41,.41,.96,.61,1.66,.61,.91,0,1.62-.29,2.14-.88,.52-.59,.87-1.47,1.06-2.66l4.39-27.68h11.56l-4.22,26.55-.08,.43c-.81,5.03-2.05,8.53-3.71,10.51-1.32,1.59-3,2.78-5.03,3.57-2.03,.79-4.43,1.19-7.21,1.19-4.35,0-7.57-.91-9.66-2.74-2.1-1.82-3.15-4.6-3.15-8.34,0-.6,.03-1.27,.08-1.98,.06-.72,.16-1.59,.31-2.61Z"/><path class="cls-1" d="M612.38,471.18l6.57-41.37h10.68c5.18,0,8.9,.75,11.17,2.24,2.27,1.49,3.4,3.92,3.4,7.28,0,2.72-.74,4.92-2.21,6.6-1.47,1.68-3.68,2.84-6.63,3.49,2.17,.61,3.85,1.67,5.03,3.2s1.77,3.38,1.77,5.55c0,1.95-.41,3.78-1.22,5.51-.81,1.73-1.96,3.18-3.43,4.35-1.36,1.12-2.96,1.92-4.8,2.41s-4.3,.74-7.38,.74h-12.95Zm12.78-8.64c.19,.04,.39,.07,.59,.08,.21,.02,.47,.03,.79,.03,1.36,0,2.39-.45,3.1-1.36,.71-.91,1.06-2.21,1.06-3.91,0-1.3-.32-2.28-.96-2.93-.64-.65-1.62-.98-2.92-.98h-.34l-1.33,9.07Zm2.55-16.78c.15,.02,.31,.03,.48,.04s.43,.01,.79,.01c1.28,0,2.3-.36,3.05-1.09,.75-.73,1.12-1.71,1.12-2.96,0-1.06-.3-1.86-.89-2.39-.59-.54-1.47-.81-2.62-.81-.09,0-.23,0-.4,.03-.17,.02-.29,.03-.37,.03l-1.16,7.14Z"/><path class="cls-1" d="M658.39,472.01c-3.91,0-7.06-1.42-9.44-4.25-2.38-2.83-3.57-6.6-3.57-11.31,0-3.83,.5-7.57,1.49-11.19,.99-3.63,2.34-6.67,4.04-9.12,1.66-2.38,3.58-4.16,5.77-5.33,2.18-1.17,4.67-1.76,7.47-1.76,3.99,0,7.15,1.39,9.49,4.18,2.34,2.79,3.51,6.58,3.51,11.38,0,3.85-.49,7.58-1.47,11.16-.98,3.59-2.33,6.64-4.05,9.15-1.61,2.36-3.51,4.13-5.71,5.31-2.2,1.18-4.71,1.77-7.52,1.77Zm-1.39-14.62c0,1.55,.21,2.68,.62,3.39,.42,.71,1.08,1.06,1.98,1.06,.81,0,1.52-.32,2.11-.96,.6-.64,1.13-1.67,1.6-3.09,.62-1.83,1.13-4.05,1.52-6.64,.39-2.6,.58-5.07,.58-7.41,0-1.55-.2-2.69-.59-3.41-.4-.73-1.01-1.09-1.84-1.09-.89,0-1.64,.32-2.25,.95-.61,.63-1.14,1.65-1.57,3.05-.62,1.91-1.14,4.17-1.54,6.8s-.61,5.08-.61,7.37Z"/></g><polygon class="cls-5" points="467.22 445.75 322.91 445.75 322.91 429.75 473.44 429.75 467.22 445.75"/></g></svg>