<?xml version="1.0" encoding="UTF-8"?>
<svg id="MID_LAYER" xmlns="http://www.w3.org/2000/svg" viewBox="0 0 792 792">
  <defs>
    <style>
      .cls-1 {
        fill: #fff;
      }

      .cls-2 {
        fill: #183b3b;
      }

      .cls-3 {
        fill: #5a8797;
      }

      .cls-4 {
        fill: #83b294;
      }
    </style>
  </defs>
  <polygon class="cls-2" points="587.79 285.27 395.65 396.2 204.9 286.07 397.04 175.14 587.79 285.27"/>
  <polygon class="cls-2" points="587.79 505.04 395.65 615.97 395.65 395.72 587.79 284.79 587.79 505.04"/>
  <polygon class="cls-2" points="396.35 616.86 204.21 505.93 204.21 285.67 396.35 396.6 396.35 616.86"/>
  <g>
    <polygon class="cls-1" points="375 580.06 225.56 493.78 225.56 322.47 375 408.75 375 580.06"/>
    <g>
      <polygon class="cls-2" points="246.91 359.27 246.91 383.74 353.65 445.37 353.65 420.9 246.91 359.27"/>
      <polygon class="cls-2" points="289.6 383.92 289.6 506.28 310.95 518.61 310.95 396.25 289.6 383.92"/>
    </g>
  </g>
  <g>
    <polygon class="cls-4" points="395.81 371.64 545.25 285.36 396.89 199.7 247.45 285.98 395.81 371.64"/>
    <g>
      <polygon class="cls-2" points="322.01 267.41 343.21 279.64 385.9 254.99 364.71 242.75 322.01 267.41"/>
      <polygon class="cls-2" points="353.96 261.2 449.33 316.26 470.68 303.94 375.31 248.87 353.96 261.2"/>
    </g>
  </g>
  <g>
    <path class="cls-3" d="m545.39,378.3l-107.34,61.97c3.62-8.31,8.04-16.41,13.1-24.01l81.13-46.84c5.05,1.77,9.48,4.76,13.1,8.88Z"/>
    <path class="cls-3" d="m438.05,522.47l107.34-61.97c-3.62,8.3-8.04,16.4-13.09,24l-81.15,46.85c-5.05-1.77-9.47-4.76-13.09-8.88Z"/>
    <path class="cls-3" d="m555.86,405.13l-128.29,74.07c.55-6.02,1.66-12.16,3.28-18.33l121.73-70.28c1.62,4.3,2.73,9.15,3.28,14.54Z"/>
    <path class="cls-3" d="m427.58,495.65l128.29-74.07c-.55,6.01-1.67,12.17-3.28,18.33l-121.73,70.28c-1.61-4.3-2.73-9.16-3.28-14.54Z"/>
  </g>
</svg>